<svg width="22" height="17" viewBox="0 0 22 17" fill="none" xmlns="http://www.w3.org/2000/svg">
<path d="M0.235796 16.5V12.2173C0.235796 10.9167 0.465791 9.53669 0.925781 8.07741C1.40163 6.60227 2.08369 5.18265 2.97195 3.81854C3.87607 2.43856 4.96259 1.241 6.23153 0.225851L9.27699 2.70028C8.2777 4.12784 7.4053 5.61884 6.6598 7.17329C5.93016 8.71188 5.56534 10.3615 5.56534 12.1222V16.5H0.235796ZM12.4176 16.5V12.2173C12.4176 10.9167 12.6476 9.53669 13.1076 8.07741C13.5835 6.60227 14.2655 5.18265 15.1538 3.81854C16.0579 2.43856 17.1444 1.241 18.4134 0.225851L21.4588 2.70028C20.4595 4.12784 19.5871 5.61884 18.8416 7.17329C18.112 8.71188 17.7472 10.3615 17.7472 12.1222V16.5H12.4176Z" fill="white"/>
</svg>
