<svg width="22" height="17" viewBox="0 0 22 17" fill="none" xmlns="http://www.w3.org/2000/svg">
<path d="M9.08807 0.272726V4.5554C9.08807 5.85606 8.85014 7.24396 8.37429 8.71911C7.9143 10.1784 7.23224 11.598 6.32812 12.978C5.43987 14.3421 4.36127 15.5317 3.09233 16.5469L0.046875 14.0724C1.04616 12.6449 1.91063 11.1618 2.64027 9.62322C3.38577 8.06877 3.75852 6.41122 3.75852 4.65057V0.272726H9.08807ZM21.2699 0.272726V4.5554C21.2699 5.85606 21.032 7.24396 20.5561 8.71911C20.0961 10.1784 19.4141 11.598 18.5099 12.978C17.6217 14.3421 16.5431 15.5317 15.2741 16.5469L12.2287 14.0724C13.228 12.6449 14.0924 11.1618 14.8221 9.62322C15.5676 8.06877 15.9403 6.41122 15.9403 4.65057V0.272726H21.2699Z" fill="white"/>
</svg>
