<svg width="25" height="25" viewBox="0 0 25 25" fill="none" xmlns="http://www.w3.org/2000/svg">
<g clip-path="url(#clip0_308_610)">
<path d="M24.2676 1.46484C24.6724 1.46484 25 1.13726 25 0.732422C25 0.327588 24.6724 0 24.2676 0H12.5C12.0952 0 11.7676 0.327588 11.7676 0.732422C11.7676 1.13726 12.0952 1.46484 12.5 1.46484H16.1621V5.9082H15.4297C15.2352 5.9082 15.0492 5.98545 14.9119 6.1228L11.9822 9.05249C11.8448 9.1898 11.7676 9.37578 11.7676 9.57031V12.5C11.7676 12.6945 11.8448 12.8805 11.9822 13.0178L13.9648 15.0005V12.9292L13.2324 12.1967V9.87358L15.733 7.37305H21.0346L23.5352 9.87358V12.1967L22.8027 12.9292V15.0005L24.7854 13.0179C24.9228 12.8805 25 12.6945 25 12.5V9.57031C25 9.37578 24.9228 9.1898 24.7854 9.05249L21.8557 6.1228C21.7184 5.98545 21.5324 5.9082 21.3379 5.9082H20.6055V1.46484H24.2676Z" fill="#00233E"/>
<path d="M22.0215 19.1406H2.97852C1.3605 19.1406 0 20.4522 0 22.0703C0 23.6883 1.3605 25 2.97852 25H22.0215C23.6395 25 25 23.6883 25 22.0703C25 20.4522 23.6395 19.1406 22.0215 19.1406ZM3.71094 22.8026C3.30635 22.8026 2.97852 22.4747 2.97852 22.0702C2.97852 21.6657 3.30635 21.3378 3.71094 21.3378C4.11543 21.3378 4.44336 21.6657 4.44336 22.0702C4.44336 22.4747 4.11543 22.8026 3.71094 22.8026ZM6.64062 22.8026C6.23604 22.8026 5.9082 22.4747 5.9082 22.0702C5.9082 21.6657 6.23604 21.3378 6.64062 21.3378C7.04512 21.3378 7.37305 21.6657 7.37305 22.0702C7.37305 22.4747 7.04512 22.8026 6.64062 22.8026ZM9.57031 22.8026C9.16572 22.8026 8.83789 22.4747 8.83789 22.0702C8.83789 21.6657 9.16572 21.3378 9.57031 21.3378C9.9748 21.3378 10.3027 21.6657 10.3027 22.0702C10.3027 22.4747 9.9748 22.8026 9.57031 22.8026ZM12.5 22.8026C12.0954 22.8026 11.7676 22.4747 11.7676 22.0702C11.7676 21.6657 12.0954 21.3378 12.5 21.3378C12.9045 21.3378 13.2324 21.6657 13.2324 22.0702C13.2324 22.4747 12.9045 22.8026 12.5 22.8026ZM15.4297 22.8026C15.0251 22.8026 14.6973 22.4747 14.6973 22.0702C14.6973 21.6657 15.0251 21.3378 15.4297 21.3378C15.8342 21.3378 16.1621 21.6657 16.1621 22.0702C16.1621 22.4747 15.8342 22.8026 15.4297 22.8026ZM18.3594 22.8026C17.9548 22.8026 17.627 22.4747 17.627 22.0702C17.627 21.6657 17.9548 21.3378 18.3594 21.3378C18.7639 21.3378 19.0918 21.6657 19.0918 22.0702C19.0918 22.4747 18.7639 22.8026 18.3594 22.8026ZM21.2891 22.8026C20.8845 22.8026 20.5566 22.4747 20.5566 22.0702C20.5566 21.6657 20.8845 21.3378 21.2891 21.3378C21.6936 21.3378 22.0215 21.6657 22.0215 22.0702C22.0215 22.4747 21.6936 22.8026 21.2891 22.8026Z" fill="#00233E"/>
<path d="M8.83789 11.7676H4.44336C4.03853 11.7676 3.71094 12.0952 3.71094 12.5V17.6758H9.57031V12.5C9.57031 12.0952 9.24272 11.7676 8.83789 11.7676Z" fill="#00233E"/>
<path d="M20.6055 11.7676H16.1621C15.7573 11.7676 15.4297 12.0952 15.4297 12.5V17.6758H21.3379V12.5C21.3379 12.0952 21.0103 11.7676 20.6055 11.7676Z" fill="#00233E"/>
</g>
<defs>
<clipPath id="clip0_308_610">
<rect width="25" height="25" fill="white"/>
</clipPath>
</defs>
</svg>
