<svg width="25" height="25" viewBox="0 0 25 25" fill="none" xmlns="http://www.w3.org/2000/svg">
<path d="M19.1895 17.4805H20.8496V22.2168H19.1895V17.4805Z" fill="#00233E"/>
<path d="M24.2676 11.7676H0.732422C0.32793 11.7676 0 12.0955 0 12.5V21.4844C0 21.8889 0.32793 22.2168 0.732422 22.2168H3.4668V19.873C3.4668 19.4686 3.79473 19.1406 4.19922 19.1406C4.60371 19.1406 4.93164 19.4686 4.93164 19.873V22.2168H6.5918V19.873C6.5918 19.4686 6.91973 19.1406 7.32422 19.1406C7.72871 19.1406 8.05664 19.4686 8.05664 19.873V22.2168H9.7168V19.873C9.7168 19.4686 10.0447 19.1406 10.4492 19.1406C10.8537 19.1406 11.1816 19.4686 11.1816 19.873V22.2168H12.8418V19.873C12.8418 19.4686 13.1697 19.1406 13.5742 19.1406C13.9787 19.1406 14.3066 19.4686 14.3066 19.873V22.2168H17.7246V16.748C17.7246 16.3436 18.0525 16.0156 18.457 16.0156H21.582C21.9865 16.0156 22.3145 16.3436 22.3145 16.748V22.2168H24.2676C24.6721 22.2168 25 21.8889 25 21.4844V12.5C25 12.0955 24.6721 11.7676 24.2676 11.7676ZM13.5742 17.4805H4.19922C3.79473 17.4805 3.4668 17.1525 3.4668 16.748C3.4668 16.3436 3.79473 16.0156 4.19922 16.0156H13.5742C13.9787 16.0156 14.3066 16.3436 14.3066 16.748C14.3066 17.1525 13.9787 17.4805 13.5742 17.4805Z" fill="#00233E"/>
<path d="M21.8188 8.6855C21.7673 8.32466 21.4582 8.05664 21.0937 8.05664H17.9687C17.6042 8.05664 17.2952 8.32466 17.2436 8.6855L17.0126 10.3027H22.0498L21.8188 8.6855Z" fill="#00233E"/>
<path d="M14.5473 3.44453C14.5107 3.06929 14.1953 2.7832 13.8184 2.7832H11.1816C10.8047 2.7832 10.4893 3.06929 10.4527 3.44453L10.3457 4.54102H14.6542L14.5473 3.44453Z" fill="#00233E"/>
<path d="M14.7968 6.00586H10.2024L9.7832 10.3027H15.216L14.7968 6.00586Z" fill="#00233E"/>
<path d="M7.12544 3.44453C7.08887 3.06929 6.77344 2.7832 6.39648 2.7832H3.75977C3.38281 2.7832 3.06738 3.06929 3.03081 3.44453L2.92383 4.54102H7.23237L7.12544 3.44453Z" fill="#00233E"/>
<path d="M7.3749 6.00586H2.78057L2.36133 10.3027H7.79414L7.3749 6.00586Z" fill="#00233E"/>
</svg>
