<svg width="25" height="25" viewBox="0 0 25 25" fill="none" xmlns="http://www.w3.org/2000/svg">
<path d="M15.6568 3.93042H2.08538C1.68531 3.93042 1.37109 4.24463 1.37109 4.64471V13.2161C1.37109 13.6089 1.68531 13.9304 2.08538 13.9304H15.6568C16.0497 13.9304 16.3711 13.6089 16.3711 13.2161V4.64471C16.3711 4.24463 16.0497 3.93042 15.6568 3.93042Z" fill="#00233E"/>
<path d="M1.36426 17.5018C1.36426 17.8946 1.68569 18.2161 2.07854 18.2161H2.84997C3.14997 16.7232 4.37854 15.5518 5.90712 15.359H2.08569C1.82847 15.359 1.5929 15.3161 1.36426 15.2303V17.5018Z" fill="#00233E"/>
<path d="M22.036 18.2161H22.9217C23.3146 18.2161 23.636 17.8946 23.636 17.5018V11.2447C23.636 10.1232 20.9003 7.50183 19.4004 7.50183H17.8004V13.2161C17.8004 14.3946 16.836 15.359 15.6575 15.359H6.83594C8.36458 15.5518 9.59315 16.7232 9.89308 18.2161H14.9931C15.3217 16.5733 16.7717 15.3233 18.5146 15.3233C20.2503 15.3232 21.7074 16.5732 22.036 18.2161ZM18.9717 9.2589C22.6289 9.08033 22.4789 12.8589 22.4789 12.8589H18.9717V9.2589Z" fill="#00233E"/>
<path d="M18.5114 21.0693C19.7027 21.0693 20.6685 20.1035 20.6685 18.9121C20.6685 17.7208 19.7027 16.755 18.5114 16.755C17.32 16.755 16.3542 17.7208 16.3542 18.9121C16.3542 20.1035 17.32 21.0693 18.5114 21.0693Z" fill="#00233E"/>
<path d="M6.36808 21.0693C7.55944 21.0693 8.52522 20.1035 8.52522 18.9121C8.52522 17.7208 7.55944 16.755 6.36808 16.755C5.17672 16.755 4.21094 17.7208 4.21094 18.9121C4.21094 20.1035 5.17672 21.0693 6.36808 21.0693Z" fill="#00233E"/>
</svg>
