<svg width="15" height="15" viewBox="0 0 15 15" fill="none" xmlns="http://www.w3.org/2000/svg">
<path d="M9.71963 8.12256L8.46335 9.38309C7.95391 9.89432 7.05754 9.90533 6.53708 9.38309L5.28074 8.12256L0.768555 12.6494C0.936514 12.7271 1.1217 12.7734 1.31857 12.7734H13.6819C13.8787 12.7734 14.0639 12.7271 14.2318 12.6494L9.71963 8.12256Z" fill="black"/>
<path d="M13.6818 2.22656H1.31852C1.12164 2.22656 0.936455 2.27291 0.768555 2.35058L5.59015 7.18816C5.59047 7.18849 5.59085 7.18855 5.59117 7.18887C5.59149 7.18919 5.59155 7.18963 5.59155 7.18963L7.15932 8.76258C7.32584 8.9291 7.67453 8.9291 7.84105 8.76258L9.4085 7.18989C9.4085 7.18989 9.40888 7.18919 9.4092 7.18887C9.4092 7.18887 9.4099 7.18849 9.41022 7.18816L14.2317 2.35055C14.0638 2.27285 13.8787 2.22656 13.6818 2.22656Z" fill="black"/>
<path d="M0.140215 2.96521C0.0533203 3.14093 0 3.33599 0 3.54494V11.4551C0 11.664 0.0532617 11.8591 0.140186 12.0348L4.6602 7.50016L0.140215 2.96521Z" fill="black"/>
<path d="M14.8598 2.96509L10.3398 7.5001L14.8598 12.0348C14.9467 11.8591 15 11.664 15 11.455V3.54487C15 3.33587 14.9467 3.14081 14.8598 2.96509Z" fill="black"/>
</svg>
