<svg width="25" height="23" viewBox="0 0 25 23" fill="none" xmlns="http://www.w3.org/2000/svg">
<path d="M11.0351 22.4863C12.2486 22.4863 13.2324 21.5026 13.2324 20.2891C13.2324 19.0755 12.2486 18.0918 11.0351 18.0918C9.82159 18.0918 8.83784 19.0755 8.83784 20.2891C8.83784 21.5026 9.82159 22.4863 11.0351 22.4863Z" fill="white"/>
<path d="M18.4081 22.4863C19.6216 22.4863 20.6054 21.5026 20.6054 20.2891C20.6054 19.0755 19.6216 18.0918 18.4081 18.0918C17.1946 18.0918 16.2108 19.0755 16.2108 20.2891C16.2108 21.5026 17.1946 22.4863 18.4081 22.4863Z" fill="white"/>
<path d="M0.732418 1.97856H3.78675L7.32276 14.357L7.04542 14.9117C6.31515 16.3707 7.37525 18.0917 9.01093 18.0917H21.3378C21.7426 18.0917 22.0702 17.7642 22.0702 17.3593C22.0702 16.9545 21.7426 16.6269 21.3378 16.6269H9.01093C8.46704 16.6269 8.11157 16.0542 8.35576 15.5669L8.5582 15.1621H21.3378C21.6646 15.1621 21.9522 14.9454 22.0423 14.6306L24.972 4.37678C25.0349 4.15579 24.9906 3.91829 24.8525 3.7345C24.7138 3.5514 24.4971 3.44339 24.2675 3.44339H5.72863L5.04343 1.04511C4.95329 0.730419 4.66579 0.513672 4.33889 0.513672H0.732418C0.327586 0.513672 0 0.841258 0 1.24609C0 1.65092 0.327586 1.97856 0.732418 1.97856V1.97856Z" fill="white"/>
</svg>
